<svg width="232" height="39" viewBox="0 0 232 39" fill="none" xmlns="http://www.w3.org/2000/svg">
<path d="M35.8252 31.0107C35.9183 31.0179 36.0114 31.0215 36.1045 31.0215H32.6348H30.0459H26.5654C27.5036 31.0215 28.3092 30.667 28.9824 29.958C29.0898 29.8506 29.1901 29.7324 29.2832 29.6035C29.3118 29.5677 29.3405 29.5283 29.3691 29.4854C29.5339 29.249 29.6699 28.9912 29.7773 28.7119C29.7988 28.6475 29.8239 28.583 29.8525 28.5186C29.9385 28.2464 29.9993 27.96 30.0352 27.6592C30.0423 27.609 30.0459 27.5589 30.0459 27.5088V17.6367V7.3457C30.0316 7.37435 30.0137 7.40299 29.9922 7.43164C29.9922 7.43164 29.9922 7.43522 29.9922 7.44238C29.849 7.67871 29.7021 7.91504 29.5518 8.15137C29.3083 8.55241 29.0612 8.95703 28.8105 9.36523C28.3737 10.0742 27.9368 10.7868 27.5 11.5029C27.3066 11.8109 27.1169 12.1188 26.9307 12.4268C26.723 12.7562 26.5189 13.0856 26.3184 13.415C25.7741 14.3031 25.2298 15.1911 24.6855 16.0791C24.0195 17.1605 23.3535 18.2419 22.6875 19.3232C22.5944 19.4736 22.5013 19.6276 22.4082 19.7852C22.0788 20.3151 21.7493 20.8486 21.4199 21.3857C21.0905 21.9229 20.7611 22.46 20.4316 22.9971C20.2096 23.3623 19.9876 23.724 19.7656 24.082C19.5436 24.4401 19.3216 24.7982 19.0996 25.1562C19.0352 25.2637 18.9707 25.3675 18.9062 25.4678C18.806 25.6396 18.7021 25.8115 18.5947 25.9834C18.3584 26.3773 18.1185 26.7676 17.875 27.1543C17.6315 27.5482 17.388 27.9421 17.1445 28.3359L16.8975 27.9277L4.79102 8.22656L4.07129 7.06641V27.1973V27.5947C4.07845 27.6449 4.08561 27.695 4.09277 27.7451C4.09277 27.7738 4.09635 27.8024 4.10352 27.8311C4.11068 27.8669 4.11784 27.8991 4.125 27.9277C4.29688 28.8301 4.69792 29.5713 5.32812 30.1514C5.95833 30.7243 6.69596 31.0107 7.54102 31.0107H4.125H4.07129H3.6416H3.59863H0.171875C1.02409 31.0107 1.7653 30.7243 2.39551 30.1514C3.02572 29.5713 3.42676 28.8301 3.59863 27.9277C3.60579 27.8991 3.60938 27.8669 3.60938 27.8311C3.61654 27.8024 3.62012 27.7738 3.62012 27.7451C3.63444 27.6878 3.6416 27.6305 3.6416 27.5732V27.1865V6.26074C3.6416 6.23926 3.6416 6.21777 3.6416 6.19629C3.63444 6.16764 3.63086 6.13542 3.63086 6.09961C3.50911 5.13281 3.1224 4.33073 2.4707 3.69336C1.82617 3.05599 1.05632 2.7373 0.161133 2.7373H4.01758H4.08203H4.45801L4.51172 2.82324L4.7373 3.18848L18.4121 25.457C18.6055 25.1491 18.7952 24.8411 18.9814 24.5332C19.2106 24.1608 19.4434 23.7848 19.6797 23.4053C19.9518 22.9613 20.224 22.5173 20.4961 22.0732C20.7611 21.6364 21.026 21.2031 21.291 20.7734C21.7207 20.0788 22.1468 19.3841 22.5693 18.6895C22.9561 18.0664 23.3392 17.4434 23.7188 16.8203C24.1055 16.1973 24.4886 15.5742 24.8682 14.9512C25.305 14.2422 25.7419 13.5296 26.1787 12.8135C26.4723 12.3408 26.766 11.8682 27.0596 11.3955C27.6396 10.443 28.2233 9.49414 28.8105 8.54883C29.0326 8.18359 29.2546 7.81836 29.4766 7.45312C29.5768 7.29557 29.6735 7.13802 29.7666 6.98047C29.7738 6.97331 29.7809 6.96257 29.7881 6.94824C29.874 6.80501 29.96 6.66536 30.0459 6.5293C30.1462 6.36458 30.2464 6.19987 30.3467 6.03516C30.4541 5.87044 30.5579 5.70215 30.6582 5.53027C30.6868 5.4873 30.7155 5.44076 30.7441 5.39062C31.0306 4.92513 31.3171 4.46322 31.6035 4.00488C31.6322 3.94759 31.6644 3.8903 31.7002 3.83301C31.8005 3.67546 31.8971 3.52148 31.9902 3.37109C32.0762 3.22786 32.1621 3.08464 32.248 2.94141L32.377 2.7373H32.3877H32.6348L35.7822 2.74805H35.8359C35.3561 2.79102 34.9121 2.93066 34.5039 3.16699C34.4896 3.17415 34.4753 3.18132 34.4609 3.18848C34.4466 3.19564 34.4323 3.2028 34.418 3.20996C33.8522 3.56087 33.4082 4.04069 33.0859 4.64941C32.8496 5.09342 32.7028 5.57682 32.6455 6.09961C32.6383 6.13542 32.6348 6.16764 32.6348 6.19629V27.6162C32.6348 27.6305 32.6348 27.6449 32.6348 27.6592C32.7637 28.6761 33.1719 29.5033 33.8594 30.1406C33.931 30.2051 34.0062 30.266 34.085 30.3232C34.1566 30.3805 34.2354 30.4342 34.3213 30.4844C34.3571 30.513 34.3929 30.5381 34.4287 30.5596C34.443 30.5667 34.4538 30.5739 34.4609 30.5811C34.4681 30.5811 34.4717 30.5811 34.4717 30.5811C34.887 30.8245 35.3382 30.9678 35.8252 31.0107ZM50.3701 27.6377C50.4919 28.6045 50.875 29.403 51.5195 30.0332C52.1712 30.6634 52.9411 30.9785 53.8291 30.9785H50.3701C50.1266 30.9785 49.8939 30.9463 49.6719 30.8818C49.235 30.7601 48.8555 30.5381 48.5332 30.2158C48.0319 29.7145 47.7812 29.1058 47.7812 28.3896V28.3467C46.7643 29.7145 45.4072 30.5524 43.71 30.8604C42.4281 31.0537 41.207 30.8962 40.0469 30.3877C38.8867 29.8792 37.9557 29.0736 37.2539 27.9707C36.6022 26.875 36.3122 25.7113 36.3838 24.4795C36.4626 23.2406 36.8887 22.1162 37.6621 21.1064C38.4212 20.1683 39.3558 19.5023 40.4658 19.1084C41.583 18.7145 42.7324 18.6286 43.9141 18.8506C45.5469 19.2087 46.8359 20.0394 47.7812 21.3428V16.6807V16.6377V16.4443V16.0254V15.8428C47.681 14.8831 47.3551 14.0882 46.8037 13.458C46.2523 12.8278 45.5898 12.5127 44.8164 12.5127C44.1289 12.5127 43.5238 12.7705 43.001 13.2861C42.4782 13.7946 42.1237 14.4535 41.9375 15.2627C41.9089 15.4274 41.8874 15.6208 41.873 15.8428C41.873 15.8571 41.873 15.8714 41.873 15.8857L41.8623 16.0254C41.8551 16.0612 41.848 16.0934 41.8408 16.1221C41.8408 16.1292 41.8408 16.1328 41.8408 16.1328C41.7835 16.3047 41.6868 16.4515 41.5508 16.5732C41.3789 16.7165 41.1784 16.7881 40.9492 16.7881C40.584 16.7881 40.3047 16.6162 40.1113 16.2725C40.0469 16.1507 40.0146 16.0146 40.0146 15.8643C40.0146 15.8499 40.0146 15.8356 40.0146 15.8213C40.0146 15.6995 40.0505 15.5599 40.1221 15.4023C40.1937 15.2376 40.2796 15.0765 40.3799 14.9189C40.4801 14.7614 40.5661 14.6289 40.6377 14.5215C40.7165 14.4141 40.763 14.3532 40.7773 14.3389C41.0065 14.0094 41.2679 13.7122 41.5615 13.4473C42.2419 12.8171 43.0439 12.3981 43.9678 12.1904C43.9893 12.1833 44.0072 12.1797 44.0215 12.1797C44.2435 12.1367 44.4619 12.1081 44.6768 12.0938C45.1208 12.0651 45.5576 12.0938 45.9873 12.1797C47.2835 12.4518 48.3506 13.1214 49.1885 14.1885C49.3317 14.3818 49.4642 14.5859 49.5859 14.8008C49.9225 15.388 50.1481 16.0146 50.2627 16.6807C50.3343 17.096 50.363 17.5114 50.3486 17.9268C50.363 18.0771 50.3701 18.224 50.3701 18.3672V27.6377ZM44.4834 30.2373C45.9443 29.736 47.0436 28.8372 47.7812 27.541V22.5459V22.2881V22.1162C47.2656 21.2282 46.571 20.5228 45.6973 20C44.8236 19.4701 43.8639 19.1872 42.8184 19.1514C42.0306 19.5238 41.3861 20.2256 40.8848 21.2568C40.3906 22.2881 40.1436 23.4805 40.1436 24.834C40.1436 26.1875 40.3906 27.3799 40.8848 28.4111C41.3789 29.4424 42.0199 30.1442 42.8076 30.5166C43.3734 30.5023 43.932 30.4092 44.4834 30.2373ZM68.9863 12.5342H72.5205C71.7113 12.5342 70.8734 12.7419 70.0068 13.1572C69.1403 13.5654 68.4922 14.1813 68.0625 15.0049C68.0482 15.055 68.0339 15.1016 68.0195 15.1445C67.9766 15.2591 67.9336 15.3737 67.8906 15.4883C67.8835 15.5098 67.8763 15.5312 67.8691 15.5527C67.862 15.5671 67.8477 15.6029 67.8262 15.6602C67.8118 15.7031 67.7939 15.7461 67.7725 15.7891C67.7223 15.9395 67.6686 16.0898 67.6113 16.2402C67.2031 17.3145 66.7985 18.3923 66.3975 19.4736C66.0465 20.4261 65.6921 21.3786 65.334 22.3311C65.026 23.1546 64.7181 23.9818 64.4102 24.8125C64.0521 25.765 63.694 26.721 63.3359 27.6807C63.2715 27.8382 63.2106 27.9922 63.1533 28.1426C63.1462 28.1784 63.1354 28.2142 63.1211 28.25C63.1211 28.25 63.1211 28.2536 63.1211 28.2607C63.1211 28.2607 63.1175 28.2607 63.1104 28.2607C62.8597 29.0485 62.5911 29.8327 62.3047 30.6133C62.0254 31.3939 61.7067 32.1566 61.3486 32.9014C60.7972 34.0687 60.0846 35.1286 59.2109 36.0811C58.3372 37.0407 57.2917 37.764 56.0742 38.251C55.9668 38.2939 55.8594 38.3333 55.752 38.3691C54.6849 38.7057 53.5999 38.7881 52.4971 38.6162C51.3942 38.4443 50.3809 38.0469 49.457 37.4238C49.3783 37.3737 49.3031 37.32 49.2314 37.2627C48.9092 37.0693 48.748 36.7972 48.748 36.4463C48.748 36.2314 48.8161 36.0417 48.9521 35.877C49.0811 35.7122 49.2493 35.6048 49.457 35.5547C49.5215 35.5332 49.5931 35.5225 49.6719 35.5225C49.9297 35.5225 50.1517 35.6156 50.3379 35.8018C50.4095 35.8805 50.4668 35.9665 50.5098 36.0596C50.9681 36.6755 51.5482 37.166 52.25 37.5312C52.9447 37.8965 53.7038 38.0791 54.5273 38.0791C54.9069 38.0791 55.2721 38.0397 55.623 37.9609C55.666 37.9466 55.709 37.9323 55.752 37.918C56.0026 37.832 56.2497 37.7282 56.4932 37.6064C57.152 37.277 57.7536 36.8688 58.2979 36.3818C58.6344 36.0739 58.9495 35.748 59.2432 35.4043C59.8734 34.6452 60.4069 33.8288 60.8438 32.9551C61.2806 32.0814 61.6637 31.179 61.9932 30.248C61.9788 30.2194 61.9645 30.1872 61.9502 30.1514C61.8356 29.915 61.6745 29.7181 61.4668 29.5605C61.3594 29.4746 61.2376 29.403 61.1016 29.3457C60.901 29.2526 60.6862 29.2061 60.457 29.2061C60.2995 29.2061 60.1455 29.2275 59.9951 29.2705L54.8066 14.8652C54.334 14.1634 53.6536 13.6012 52.7656 13.1787C51.8776 12.749 51.0684 12.5342 50.3379 12.5342H53.958H56.708C56.7367 12.5342 56.7581 12.5342 56.7725 12.5342H60.7471C60.1813 12.5342 59.6335 12.6452 59.1035 12.8672C58.5736 13.082 58.1725 13.4007 57.9004 13.8232C57.6283 14.2458 57.5745 14.765 57.7393 15.3809L57.8574 15.7139L61.7031 26.3809L62.5195 28.6367C62.6198 28.3717 62.7165 28.1068 62.8096 27.8418C62.9098 27.584 63.0101 27.3226 63.1104 27.0576C63.1104 27.0433 63.1139 27.029 63.1211 27.0146C63.4935 26.0264 63.8623 25.0417 64.2275 24.0605C64.557 23.1725 64.89 22.2845 65.2266 21.3965C65.556 20.5085 65.889 19.6169 66.2256 18.7217C66.6696 17.5329 67.1136 16.3441 67.5576 15.1553C67.6006 15.0407 67.6436 14.9261 67.6865 14.8115C67.4072 14.1312 66.9811 13.5833 66.4082 13.168C65.8424 12.7454 65.2015 12.5342 64.4854 12.5342H68.46C68.4671 12.5342 68.4922 12.5342 68.5352 12.5342H68.7607L68.7715 12.5234L68.7607 12.5342H68.9863ZM84.7666 27.6377C84.8883 28.6045 85.2715 29.403 85.916 30.0332C86.5677 30.6634 87.3376 30.9785 88.2256 30.9785H84.7666C84.5231 30.9785 84.2904 30.9463 84.0684 30.8818C83.6315 30.7601 83.252 30.5381 82.9297 30.2158C82.4284 29.7145 82.1777 29.1058 82.1777 28.3896V28.3467C81.1608 29.7145 79.8037 30.5524 78.1064 30.8604C76.8245 31.0537 75.6035 30.8962 74.4434 30.3877C73.2832 29.8792 72.3522 29.0736 71.6504 27.9707C70.9987 26.875 70.7087 25.7113 70.7803 24.4795C70.859 23.2406 71.2852 22.1162 72.0586 21.1064C72.8177 20.1683 73.7523 19.5023 74.8623 19.1084C75.9795 18.7145 77.1289 18.6286 78.3105 18.8506C79.9434 19.2087 81.2324 20.0394 82.1777 21.3428V16.6807V16.6377V16.4443V16.0254V15.8428C82.0775 14.8831 81.7516 14.0882 81.2002 13.458C80.6488 12.8278 79.9863 12.5127 79.2129 12.5127C78.5254 12.5127 77.9202 12.7705 77.3975 13.2861C76.8747 13.7946 76.5202 14.4535 76.334 15.2627C76.3053 15.4274 76.2839 15.6208 76.2695 15.8428C76.2695 15.8571 76.2695 15.8714 76.2695 15.8857L76.2588 16.0254C76.2516 16.0612 76.2445 16.0934 76.2373 16.1221C76.2373 16.1292 76.2373 16.1328 76.2373 16.1328C76.18 16.3047 76.0833 16.4515 75.9473 16.5732C75.7754 16.7165 75.5749 16.7881 75.3457 16.7881C74.9805 16.7881 74.7012 16.6162 74.5078 16.2725C74.4434 16.1507 74.4111 16.0146 74.4111 15.8643C74.4111 15.8499 74.4111 15.8356 74.4111 15.8213C74.4111 15.6995 74.4469 15.5599 74.5186 15.4023C74.5902 15.2376 74.6761 15.0765 74.7764 14.9189C74.8766 14.7614 74.9626 14.6289 75.0342 14.5215C75.113 14.4141 75.1595 14.3532 75.1738 14.3389C75.403 14.0094 75.6644 13.7122 75.958 13.4473C76.6383 12.8171 77.4404 12.3981 78.3643 12.1904C78.3857 12.1833 78.4036 12.1797 78.418 12.1797C78.64 12.1367 78.8584 12.1081 79.0732 12.0938C79.5173 12.0651 79.9541 12.0938 80.3838 12.1797C81.68 12.4518 82.7471 13.1214 83.585 14.1885C83.7282 14.3818 83.8607 14.5859 83.9824 14.8008C84.319 15.388 84.5446 16.0146 84.6592 16.6807C84.7308 17.096 84.7594 17.5114 84.7451 17.9268C84.7594 18.0771 84.7666 18.224 84.7666 18.3672V27.6377ZM78.8799 30.2373C80.3408 29.736 81.4401 28.8372 82.1777 27.541V22.5459V22.2881V22.1162C81.6621 21.2282 80.9674 20.5228 80.0938 20C79.2201 19.4701 78.2604 19.1872 77.2148 19.1514C76.4271 19.5238 75.7826 20.2256 75.2812 21.2568C74.7871 22.2881 74.54 23.4805 74.54 24.834C74.54 26.1875 74.7871 27.3799 75.2812 28.4111C75.7754 29.4424 76.4163 30.1442 77.2041 30.5166C77.7699 30.5023 78.3285 30.4092 78.8799 30.2373ZM114.275 17.0029C113.774 17.0029 113.348 16.6556 112.997 15.9609C112.646 15.2734 112.471 14.4391 112.471 13.458C112.471 14.4391 112.295 15.2734 111.944 15.9609C111.586 16.6556 111.16 17.0029 110.666 17.0029C111.16 17.0029 111.586 17.3503 111.944 18.0449C112.295 18.7324 112.471 19.5667 112.471 20.5479C112.471 19.5667 112.646 18.7324 112.997 18.0449C113.348 17.3503 113.774 17.0029 114.275 17.0029ZM122.622 21.3428C122.636 21.2712 122.669 21.2174 122.719 21.1816C122.776 21.1458 122.837 21.1315 122.901 21.1387C122.959 21.1458 123.005 21.1816 123.041 21.2461C123.062 21.2962 123.07 21.3535 123.062 21.418C123.062 21.4466 123.052 21.5218 123.03 21.6436C123.009 21.7653 122.987 21.8906 122.966 22.0195C122.944 22.1484 122.926 22.2487 122.912 22.3203C122.654 23.7168 122.157 25.0273 121.419 26.252C120.688 27.4694 119.715 28.4613 118.497 29.2275C117.86 29.6071 117.197 29.9258 116.51 30.1836C115.851 30.4128 115.185 30.6025 114.512 30.7529C114.505 30.7529 114.494 30.7565 114.479 30.7637C114.465 30.7637 114.451 30.7673 114.437 30.7744C112.367 31.1325 110.34 30.9714 108.356 30.291C108.349 30.2839 108.339 30.2803 108.324 30.2803C108.331 30.2803 108.335 30.2803 108.335 30.2803C108.013 30.1657 107.694 30.0404 107.379 29.9043C105.216 28.8874 103.444 27.4014 102.062 25.4463C100.55 23.2979 99.6696 20.9167 99.4189 18.3027C99.1898 15.7676 99.5729 13.3255 100.568 10.9766C101.542 8.73503 102.993 6.86589 104.919 5.36914C105.828 4.66732 106.817 4.0944 107.884 3.65039C108.385 3.44987 108.897 3.27799 109.42 3.13477C109.449 3.12044 109.481 3.1097 109.517 3.10254C109.81 3.0166 110.168 2.94141 110.591 2.87695C111.006 2.81966 111.393 2.77311 111.751 2.7373C112.109 2.70866 112.349 2.69076 112.471 2.68359C114.648 2.63346 116.678 3.14909 118.562 4.23047C118.633 4.26628 118.705 4.30924 118.776 4.35938C118.841 4.40234 118.92 4.45605 119.013 4.52051C119.113 4.58496 119.202 4.64583 119.281 4.70312C119.367 4.75326 119.424 4.78906 119.453 4.81055C119.646 4.96094 119.836 5.11849 120.022 5.2832C120.352 5.57682 120.653 5.89909 120.925 6.25C121.612 7.10938 122.042 8.07975 122.214 9.16113C122.25 9.41178 122.26 9.66243 122.246 9.91309C122.239 10.1494 122.196 10.3822 122.117 10.6113C122.046 10.8262 121.927 11.0088 121.763 11.1592C121.741 11.1807 121.716 11.2021 121.688 11.2236C121.673 11.2308 121.659 11.2415 121.645 11.2559C121.637 11.2702 121.627 11.2773 121.612 11.2773C121.598 11.2917 121.584 11.3024 121.569 11.3096C121.519 11.3525 121.465 11.3883 121.408 11.417C121.072 11.5889 120.721 11.6175 120.355 11.5029C120.048 11.3812 119.8 11.1842 119.614 10.9121C119.428 10.64 119.339 10.3356 119.346 9.99902C119.339 9.00358 119.156 8.04036 118.798 7.10938C118.468 6.25716 117.989 5.50163 117.358 4.84277C116.735 4.18392 115.991 3.70052 115.124 3.39258C114.229 3.11328 113.312 3.03092 112.374 3.14551C111.422 3.23145 110.519 3.48568 109.667 3.9082C108.256 4.63867 107.078 5.64844 106.133 6.9375C105.145 8.26953 104.407 9.73405 103.92 11.3311C103.44 12.9209 103.186 14.543 103.157 16.1973C103.121 17.8086 103.3 19.402 103.694 20.9775C104.088 22.5459 104.715 24.014 105.574 25.3818C106.391 26.6781 107.422 27.7559 108.668 28.6152C109.914 29.4746 111.321 29.9365 112.89 30.001C112.89 30.0081 112.893 30.0117 112.9 30.0117C114.018 30.1048 115.117 29.9974 116.198 29.6895C117.115 29.446 117.964 29.0664 118.744 28.5508C119.482 28.0208 120.116 27.387 120.646 26.6494C121.175 25.9046 121.602 25.1025 121.924 24.2432C122.253 23.3766 122.475 22.5101 122.59 21.6436C122.604 21.5433 122.615 21.443 122.622 21.3428ZM140.486 27.6162C140.608 28.583 140.991 29.3851 141.636 30.0225C142.28 30.6598 143.05 30.9785 143.945 30.9785H140.476H139.981H138.381H137.887H134.417C135.312 30.9785 136.082 30.6598 136.727 30.0225C137.371 29.3851 137.754 28.583 137.876 27.6162C137.876 27.6019 137.88 27.5876 137.887 27.5732C137.887 27.5661 137.887 27.5589 137.887 27.5518V18.8506V17.8193V17.5938V17.3037V16.9707V16.9385C137.887 16.9313 137.887 16.9277 137.887 16.9277C137.872 16.4193 137.747 15.9609 137.511 15.5527C137.489 15.5169 137.471 15.4811 137.457 15.4453C137.407 15.3737 137.353 15.3021 137.296 15.2305C137.239 15.1589 137.178 15.0908 137.113 15.0264C137.099 15.012 137.085 14.9977 137.07 14.9834C137.049 14.9619 137.027 14.9404 137.006 14.9189C136.999 14.9118 136.988 14.9046 136.974 14.8975C136.759 14.6969 136.526 14.5251 136.275 14.3818C136.254 14.3747 136.236 14.3639 136.222 14.3496C136.028 14.2493 135.828 14.1634 135.62 14.0918C135.398 14.0202 135.173 13.9701 134.943 13.9414C134.886 13.9342 134.829 13.9307 134.771 13.9307C134.435 13.9092 134.098 13.9342 133.762 14.0059C133.268 14.1133 132.795 14.2995 132.344 14.5645C131.964 14.7865 131.606 15.0479 131.27 15.3486C131.162 15.4561 131.055 15.5635 130.947 15.6709C130.389 16.2868 129.891 16.9528 129.454 17.6689L129.443 17.7012V27.5088C129.443 27.516 129.443 27.5231 129.443 27.5303C129.443 27.5589 129.443 27.5876 129.443 27.6162C129.565 28.583 129.948 29.3851 130.593 30.0225C131.244 30.6598 132.018 30.9785 132.913 30.9785H129.443H128.949H127.349H126.854H123.374C124.269 30.9785 125.039 30.6598 125.684 30.0225C126.335 29.3851 126.722 28.583 126.844 27.6162C126.844 27.5876 126.847 27.5589 126.854 27.5303C126.854 27.5231 126.854 27.516 126.854 27.5088V8.97852V5.33691C126.382 5.41569 125.938 5.37272 125.522 5.20801C125.494 5.20085 125.469 5.19368 125.447 5.18652C125.34 5.11491 125.286 5.01823 125.286 4.89648C125.286 4.81055 125.315 4.73535 125.372 4.6709C125.437 4.60645 125.515 4.57422 125.608 4.57422C125.644 4.57422 125.68 4.58138 125.716 4.5957C125.73 4.60286 125.744 4.61003 125.759 4.61719C126.067 4.75326 126.396 4.82129 126.747 4.82129C127.119 4.82129 127.463 4.74609 127.778 4.5957C128.058 4.4668 128.301 4.2985 128.509 4.09082C128.559 4.04069 128.605 3.99056 128.648 3.94043C128.648 3.94043 128.645 3.94401 128.638 3.95117C128.645 3.95117 128.648 3.95117 128.648 3.95117C128.971 3.57161 129.236 3.15267 129.443 2.69434V8.97852V16.9062C129.687 16.5482 129.945 16.2008 130.217 15.8643C130.26 15.8141 130.303 15.764 130.346 15.7139C130.346 15.7139 130.346 15.7103 130.346 15.7031C131.012 14.9154 131.774 14.2493 132.634 13.7051C133.5 13.1608 134.449 12.8242 135.48 12.6953C136.175 12.6165 136.859 12.6702 137.532 12.8564C137.718 12.9066 137.901 12.971 138.08 13.0498C138.109 13.057 138.141 13.0677 138.177 13.082C138.184 13.0892 138.191 13.0928 138.198 13.0928C138.234 13.1071 138.27 13.1214 138.306 13.1357C138.592 13.2503 138.868 13.3936 139.133 13.5654C139.34 13.68 139.527 13.8268 139.691 14.0059C139.691 14.013 139.695 14.0166 139.702 14.0166C139.702 14.0166 139.702 14.0202 139.702 14.0273C139.831 14.1562 139.946 14.3031 140.046 14.4678C140.125 14.6038 140.196 14.7471 140.261 14.8975C140.261 14.9046 140.261 14.9082 140.261 14.9082C140.289 14.9798 140.314 15.055 140.336 15.1338C140.386 15.2842 140.422 15.4346 140.443 15.585C140.458 15.6566 140.468 15.7282 140.476 15.7998V16.3691V17.5938V27.4658C140.476 27.516 140.479 27.5661 140.486 27.6162ZM150.348 27.6162C150.469 28.583 150.853 29.3851 151.497 30.0225C152.149 30.6598 152.919 30.9785 153.807 30.9785H150.326H149.843H148.242H147.737H144.278C145.166 30.9785 145.933 30.6634 146.577 30.0332C147.229 29.3958 147.616 28.5938 147.737 27.627V18.8184V15.166C147.272 15.252 146.828 15.2126 146.405 15.0479C146.384 15.0335 146.362 15.0228 146.341 15.0156C146.226 14.9512 146.169 14.8581 146.169 14.7363C146.169 14.6432 146.201 14.568 146.266 14.5107C146.33 14.4463 146.405 14.4141 146.491 14.4141C146.534 14.4141 146.57 14.4176 146.599 14.4248C146.62 14.432 146.638 14.4391 146.652 14.4463C146.96 14.5824 147.29 14.6504 147.641 14.6504C148.006 14.6504 148.35 14.5752 148.672 14.4248C148.951 14.3031 149.195 14.1348 149.402 13.9199C149.445 13.8698 149.488 13.8232 149.531 13.7803C149.531 13.7874 149.531 13.791 149.531 13.791C149.531 13.791 149.531 13.7874 149.531 13.7803C149.854 13.4007 150.118 12.9818 150.326 12.5234V18.8184V27.4551L150.348 27.6162ZM149.037 11.1592C148.6 11.1592 148.228 11.0088 147.92 10.708C147.619 10.4001 147.469 10.0312 147.469 9.60156C147.469 9.17188 147.619 8.80306 147.92 8.49512C148.228 8.18717 148.6 8.0332 149.037 8.0332C149.467 8.0332 149.832 8.18717 150.133 8.49512C150.441 8.80306 150.595 9.17188 150.595 9.60156C150.595 10.0312 150.441 10.4001 150.133 10.708C149.832 11.0088 149.467 11.1592 149.037 11.1592ZM178.75 27.6484C178.879 28.6081 179.266 29.403 179.91 30.0332C180.555 30.6634 181.325 30.9785 182.22 30.9785H178.75C178.514 30.9785 178.285 30.9499 178.062 30.8926C177.618 30.7637 177.239 30.5417 176.924 30.2266C176.423 29.7181 176.172 29.1094 176.172 28.4004V28.3574C175.148 29.7181 173.787 30.5524 172.09 30.8604C170.808 31.0537 169.587 30.8962 168.427 30.3877C167.267 29.8792 166.339 29.0736 165.645 27.9707C164.986 26.875 164.696 25.7113 164.774 24.4795C164.853 23.2477 165.279 22.127 166.053 21.1172C166.812 20.179 167.746 19.513 168.856 19.1191C169.974 18.7181 171.123 18.6286 172.305 18.8506C173.93 19.2087 175.219 20.0394 176.172 21.3428V16.6807V16.6484V16.2617V15.8428C176.15 15.5778 176.111 15.32 176.054 15.0693C176.004 14.8688 175.946 14.6719 175.882 14.4785C175.617 13.8984 175.173 13.4294 174.55 13.0713C173.934 12.7132 173.225 12.5342 172.423 12.5342C172.065 12.5342 171.721 12.57 171.392 12.6416C171.965 12.2692 172.616 12.083 173.347 12.083C173.354 12.083 173.361 12.083 173.368 12.083C173.712 12.083 174.049 12.1152 174.378 12.1797C175.674 12.459 176.738 13.1286 177.568 14.1885C177.719 14.3818 177.855 14.5859 177.977 14.8008C178.313 15.3952 178.539 16.0218 178.653 16.6807C178.725 17.096 178.754 17.515 178.739 17.9375C178.746 18.0807 178.75 18.224 178.75 18.3672V27.6484ZM172.863 30.2373C174.324 29.7432 175.427 28.8444 176.172 27.541V22.1162C175.656 21.2282 174.962 20.5228 174.088 20C173.214 19.4772 172.251 19.1943 171.198 19.1514C170.41 19.5238 169.766 20.2256 169.265 21.2568C168.771 22.2881 168.523 23.4805 168.523 24.834C168.523 26.1875 168.771 27.3799 169.265 28.4111C169.766 29.4424 170.407 30.1442 171.188 30.5166C171.753 30.5023 172.312 30.4092 172.863 30.2373ZM164.839 11.2129C164.832 11.2129 164.828 11.2129 164.828 11.2129C164.742 11.2201 164.66 11.2236 164.581 11.2236C164.581 11.2308 164.581 11.2344 164.581 11.2344C164.159 11.263 163.74 11.3525 163.324 11.5029C162.938 11.6462 162.579 11.8359 162.25 12.0723C161.068 12.946 160.381 14.124 160.188 15.6064V16.2295V16.7129C160.188 16.763 160.195 16.8167 160.209 16.874C160.195 16.8597 160.188 16.849 160.188 16.8418V17.6582V18.3027V18.7754V27.4121L160.198 27.4336C160.198 27.4837 160.202 27.5339 160.209 27.584C160.331 28.5508 160.714 29.3529 161.358 29.9902C162.01 30.6276 162.784 30.9463 163.679 30.9463H159.704C159.704 30.9463 159.701 30.9463 159.693 30.9463C159.693 30.9463 159.69 30.9463 159.683 30.9463H158.136C158.129 30.9463 158.125 30.9463 158.125 30.9463C158.118 30.9463 158.111 30.9463 158.104 30.9463H154.14C155.021 30.9463 155.783 30.6348 156.428 30.0117C157.072 29.3887 157.463 28.6009 157.599 27.6484V18.7754V15.1338C157.126 15.2126 156.682 15.1696 156.267 15.0049C156.245 14.9977 156.22 14.987 156.191 14.9727C156.084 14.9082 156.03 14.8151 156.03 14.6934C156.03 14.6003 156.059 14.5251 156.116 14.4678C156.181 14.4033 156.259 14.3711 156.353 14.3711C156.388 14.3711 156.424 14.3783 156.46 14.3926C156.474 14.3926 156.489 14.3997 156.503 14.4141C156.811 14.543 157.14 14.6074 157.491 14.6074C157.864 14.6074 158.211 14.5358 158.533 14.3926C158.805 14.2637 159.049 14.0918 159.264 13.877C159.307 13.834 159.35 13.7874 159.393 13.7373C159.385 13.7445 159.382 13.748 159.382 13.748C159.389 13.748 159.393 13.748 159.393 13.748C159.393 13.748 159.393 13.7445 159.393 13.7373C159.414 13.7158 159.432 13.6943 159.446 13.6729C159.525 13.5798 159.597 13.4867 159.661 13.3936C159.869 13.1071 160.044 12.8063 160.188 12.4912V13.9414C160.639 12.946 161.326 12.151 162.25 11.5566C162.766 11.2344 163.328 11.0088 163.937 10.8799C164.151 10.8369 164.37 10.8083 164.592 10.7939C165.645 10.7295 166.626 10.9515 167.535 11.46C167.643 11.5173 167.746 11.5817 167.847 11.6533C168.52 12.0902 169.071 12.6631 169.501 13.3721C169.766 13.8232 169.959 14.2959 170.081 14.79C170.146 15.0622 170.192 15.3379 170.221 15.6172C170.242 15.7246 170.253 15.8356 170.253 15.9502C170.253 16.0146 170.249 16.0791 170.242 16.1436C170.185 16.5446 170.009 16.8704 169.716 17.1211C169.429 17.3789 169.089 17.5078 168.695 17.5078C168.266 17.5078 167.897 17.3574 167.589 17.0566C167.281 16.7487 167.127 16.3799 167.127 15.9502C167.127 15.9144 167.131 15.8786 167.138 15.8428C167.145 15.6781 167.177 15.5205 167.234 15.3701C167.249 15.3415 167.263 15.3164 167.277 15.2949C167.313 15.0586 167.331 14.8187 167.331 14.5752C167.331 14.1312 167.263 13.7051 167.127 13.2969C166.984 12.8743 166.776 12.4876 166.504 12.1367C166.432 12.0436 166.354 11.9541 166.268 11.8682C166.182 11.7751 166.092 11.6855 165.999 11.5996C165.612 11.3132 165.226 11.1842 164.839 11.2129ZM194.541 30.4951C195.443 30.3734 196.188 29.958 196.775 29.249C197.37 28.5329 197.667 27.6842 197.667 26.7031V30.4951V30.9893H194.487H188.805H185.958H182.972L191.426 16.3477C191.748 15.5026 191.827 14.8079 191.662 14.2637C191.497 13.7194 191.261 13.3112 190.953 13.0391H188.826C187.924 13.1608 187.175 13.5762 186.581 14.2852C185.994 14.9941 185.7 15.8428 185.7 16.8311V13.0391V12.5449H188.88H190.427L193.628 12.5342H194.745H194.81H196.614L187.645 28.0781C187.551 28.6654 187.587 29.1595 187.752 29.5605C187.924 29.9544 188.132 30.266 188.375 30.4951H194.541Z" fill="white"/>
<path d="M222.396 16.6484C223.391 17.651 224.551 18.4352 225.876 19.001C227.201 19.5739 228.619 19.8604 230.13 19.8604C228.619 19.8604 227.201 20.1432 225.876 20.709C224.551 21.2747 223.391 22.0589 222.396 23.0615C221.393 24.057 220.609 25.2171 220.043 26.542C219.47 27.8669 219.184 29.2848 219.184 30.7959C219.184 29.2848 218.901 27.8669 218.335 26.542C217.769 25.2171 216.985 24.057 215.982 23.0615C214.987 22.0589 213.827 21.2747 212.502 20.709C211.177 20.1432 209.759 19.8604 208.248 19.8604C209.759 19.8604 211.177 19.5739 212.502 19.001C213.827 18.4352 214.987 17.651 215.982 16.6484C216.985 15.653 217.769 14.4928 218.335 13.168C218.901 11.8431 219.184 10.4251 219.184 8.91406C219.184 10.4251 219.47 11.8431 220.043 13.168C220.609 14.4928 221.393 15.653 222.396 16.6484ZM227.745 2.58691C228.168 3.2959 228.737 3.86165 229.453 4.28418C230.162 4.70671 230.95 4.91797 231.816 4.91797C230.95 4.91797 230.162 5.12923 229.453 5.55176C228.737 5.97428 228.168 6.54362 227.745 7.25977C227.323 7.96875 227.111 8.75651 227.111 9.62305C227.111 8.75651 226.9 7.96875 226.478 7.25977C226.055 6.54362 225.489 5.97428 224.78 5.55176C224.064 5.12923 223.273 4.91797 222.406 4.91797C223.273 4.91797 224.064 4.70671 224.78 4.28418C225.489 3.86165 226.055 3.2959 226.478 2.58691C226.9 1.87077 227.111 1.07943 227.111 0.212891C227.111 1.07943 227.323 1.87077 227.745 2.58691ZM229.228 5.18652C229.399 5.08626 229.571 4.99674 229.743 4.91797C229.571 4.83919 229.399 4.74967 229.228 4.64941C228.454 4.19108 227.838 3.5752 227.38 2.80176C227.28 2.63704 227.19 2.46517 227.111 2.28613C227.033 2.46517 226.947 2.63704 226.854 2.80176C226.388 3.5752 225.769 4.19108 224.995 4.64941C224.83 4.74967 224.659 4.83919 224.479 4.91797C224.659 4.99674 224.83 5.08626 224.995 5.18652C225.769 5.64486 226.388 6.26074 226.854 7.03418C226.947 7.19889 227.033 7.37077 227.111 7.5498C227.19 7.37077 227.28 7.19889 227.38 7.03418C227.838 6.26074 228.454 5.64486 229.228 5.18652ZM207.915 12.2441C208.631 12.6667 209.423 12.8779 210.289 12.8779C209.423 12.8779 208.631 13.0892 207.915 13.5117C207.206 13.9342 206.64 14.5 206.218 15.209C205.795 15.9251 205.584 16.7165 205.584 17.583C205.584 16.7165 205.373 15.9251 204.95 15.209C204.528 14.5 203.958 13.9342 203.242 13.5117C202.533 13.0892 201.745 12.8779 200.879 12.8779C201.745 12.8779 202.533 12.6667 203.242 12.2441C203.958 11.8216 204.528 11.2523 204.95 10.5361C205.373 9.82715 205.584 9.03939 205.584 8.17285C205.584 9.03939 205.795 9.82715 206.218 10.5361C206.64 11.2523 207.206 11.8216 207.915 12.2441ZM207.7 13.1357C207.865 13.0426 208.037 12.9567 208.216 12.8779C208.037 12.7992 207.865 12.7096 207.7 12.6094C206.927 12.151 206.307 11.5352 205.842 10.7617C205.749 10.5898 205.663 10.418 205.584 10.2461C205.505 10.418 205.416 10.5898 205.315 10.7617C204.857 11.5352 204.241 12.151 203.468 12.6094C203.296 12.7096 203.124 12.7992 202.952 12.8779C203.124 12.9567 203.296 13.0426 203.468 13.1357C204.241 13.6012 204.857 14.2207 205.315 14.9941C205.416 15.1589 205.505 15.3307 205.584 15.5098C205.663 15.3307 205.749 15.1589 205.842 14.9941C206.307 14.2207 206.927 13.6012 207.7 13.1357Z" fill="#E94021"/>
</svg>
